<svg width="132" height="31" viewBox="0 0 132 31" fill="none" xmlns="http://www.w3.org/2000/svg">
<path d="M15.0402 7.51992V29.9999H8.2002V7.51992H0.200195V1.67992H23.0402V7.51992H15.0402Z" fill="#CDCDCD"/>
<path d="M53.6824 15.7199C53.6824 17.9599 53.2957 20.0133 52.5224 21.8799C51.7491 23.7199 50.669 25.3066 49.2824 26.6399C47.9224 27.9466 46.2957 28.9599 44.4024 29.6799C42.5091 30.3999 40.4557 30.7599 38.2424 30.7599C36.029 30.7599 33.9757 30.3999 32.0824 29.6799C30.2157 28.9599 28.589 27.9466 27.2024 26.6399C25.8424 25.3066 24.7757 23.7199 24.0024 21.8799C23.229 20.0133 22.8424 17.9599 22.8424 15.7199C22.8424 13.4533 23.229 11.4133 24.0024 9.59992C24.7757 7.75992 25.8424 6.19992 27.2024 4.91992C28.589 3.63992 30.2157 2.65326 32.0824 1.95992C33.9757 1.26659 36.029 0.919922 38.2424 0.919922C40.4557 0.919922 42.5091 1.26659 44.4024 1.95992C46.2957 2.65326 47.9224 3.63992 49.2824 4.91992C50.669 6.19992 51.7491 7.75992 52.5224 9.59992C53.2957 11.4133 53.6824 13.4533 53.6824 15.7199ZM46.3624 15.7199C46.3624 14.4933 46.1624 13.3466 45.7624 12.2799C45.3624 11.2133 44.8024 10.3066 44.0824 9.55992C43.3891 8.78659 42.5357 8.18659 41.5224 7.75992C40.5357 7.30659 39.4424 7.07992 38.2424 7.07992C37.0424 7.07992 35.949 7.30659 34.9624 7.75992C33.9757 8.18659 33.1224 8.78659 32.4024 9.55992C31.6824 10.3066 31.1224 11.2133 30.7224 12.2799C30.349 13.3466 30.1624 14.4933 30.1624 15.7199C30.1624 16.9999 30.3624 18.1866 30.7624 19.2799C31.1624 20.3466 31.709 21.2666 32.4024 22.0399C33.1224 22.8133 33.9757 23.4266 34.9624 23.8799C35.949 24.3066 37.0424 24.5199 38.2424 24.5199C39.4424 24.5199 40.5357 24.3066 41.5224 23.8799C42.5091 23.4266 43.3624 22.8133 44.0824 22.0399C44.8024 21.2666 45.3624 20.3466 45.7624 19.2799C46.1624 18.1866 46.3624 16.9999 46.3624 15.7199Z" fill="#CDCDCD"/>
<path d="M55.7858 29.9999V1.67992H62.6658V29.9999H55.7858Z" fill="#CDCDCD"/>
<path d="M66.1202 29.9999V1.67992H73.0002V29.9999H66.1202Z" fill="#CDCDCD"/>
<path d="M98.5346 21.7599C98.5346 23.3066 98.2279 24.6133 97.6146 25.6799C97.0012 26.7199 96.1879 27.5599 95.1746 28.1999C94.1612 28.8399 93.0012 29.3066 91.6946 29.5999C90.4146 29.8666 89.0946 29.9999 87.7346 29.9999H76.4546V1.67992H87.7346C88.8279 1.67992 89.9479 1.79992 91.0946 2.03992C92.2412 2.25326 93.2812 2.63992 94.2146 3.19992C95.1479 3.73326 95.9079 4.46659 96.4946 5.39992C97.0812 6.33326 97.3746 7.51992 97.3746 8.95992C97.3746 10.5333 96.9479 11.8399 96.0946 12.8799C95.2412 13.8933 94.1212 14.6266 92.7346 15.0799V15.1599C93.5346 15.2933 94.2812 15.5466 94.9746 15.9199C95.6946 16.2666 96.3079 16.7199 96.8146 17.2799C97.3479 17.8399 97.7612 18.4933 98.0546 19.2399C98.3746 19.9866 98.5346 20.8266 98.5346 21.7599ZM90.7746 9.87992C90.7746 8.91992 90.4012 8.22659 89.6546 7.79992C88.9346 7.34659 87.8546 7.11992 86.4146 7.11992H83.0546V12.9599H86.7346C88.0146 12.9599 89.0012 12.7066 89.6946 12.1999C90.4146 11.6666 90.7746 10.8933 90.7746 9.87992ZM91.6946 21.1199C91.6946 19.9466 91.2546 19.1333 90.3746 18.6799C89.4946 18.2266 88.3212 17.9999 86.8546 17.9999H83.0546V24.4799H86.8946C87.4279 24.4799 87.9746 24.4399 88.5346 24.3599C89.1212 24.2533 89.6412 24.0799 90.0946 23.8399C90.5746 23.5999 90.9612 23.2666 91.2546 22.8399C91.5479 22.3866 91.6946 21.8133 91.6946 21.1199Z" fill="#CDCDCD"/>
<path d="M100.656 29.9999V1.67992H107.536V29.9999H100.656Z" fill="#CDCDCD"/>
<path d="M123.111 7.51992V29.9999H116.271V7.51992H108.271V1.67992H131.111V7.51992H123.111Z" fill="#CDCDCD"/>
</svg>
